<?xml version="1.0" standalone="no"?>
<!DOCTYPE svg PUBLIC "-//W3C//DTD SVG 20010904//EN"
 "http://www.w3.org/TR/2001/REC-SVG-20010904/DTD/svg10.dtd">
<svg version="1.0" xmlns="http://www.w3.org/2000/svg"
 width="500.000000pt" height="500.000000pt" viewBox="0 0 500.000000 500.000000"
 preserveAspectRatio="xMidYMid meet">

<g transform="translate(0.000000,500.000000) scale(0.100000,-0.100000)"
fill="#000000" stroke="none">
<path d="M0 2500 l0 -2500 2500 0 2500 0 0 2500 0 2500 -2500 0 -2500 0 0
-2500z m1317 804 c88 -21 233 -76 233 -88 0 -2 -40 11 -89 30 -107 40 -267 74
-348 74 -150 0 -339 -50 -446 -117 -99 -62 -182 -151 -246 -263 -35 -63 -42
-61 -10 3 112 219 326 365 564 384 39 3 72 8 75 10 11 11 171 -9 267 -33z
m1274 -6 c-120 -17 -257 -86 -359 -181 -48 -45 -52 -47 -28 -15 84 113 267
208 396 206 l55 0 -64 -10z m310 -461 c34 -125 -60 -256 -191 -265 -83 -6
-231 31 -286 73 -10 8 17 0 61 -17 54 -20 105 -32 157 -36 69 -4 83 -2 130 21
106 52 140 156 92 277 l-14 35 20 -23 c11 -13 25 -43 31 -65z m441 -39 c23
-19 28 -44 13 -65 -11 -15 -11 -21 2 -35 8 -9 13 -29 11 -44 -4 -36 -37 -54
-100 -54 l-48 0 0 105 0 105 53 0 c29 0 60 -6 69 -12z m218 -41 c0 -93 20
-136 64 -137 42 0 56 28 56 112 0 45 4 78 10 78 6 0 10 -34 10 -82 0 -70 -3
-85 -22 -105 -39 -42 -108 -27 -127 28 -14 40 -15 159 -1 159 6 0 10 -24 10
-53z m410 -27 l55 -79 3 79 c4 119 22 98 22 -25 0 -58 -3 -105 -7 -105 -5 0
-33 36 -63 80 -30 44 -58 79 -62 80 -5 0 -8 -36 -8 -80 0 -47 -4 -80 -10 -80
-6 0 -10 42 -10 105 0 78 3 105 13 105 6 -1 37 -36 67 -80z m434 59 c14 -11
26 -27 26 -35 0 -19 -5 -18 -34 11 -41 41 -106 33 -131 -16 -22 -42 -18 -67
15 -101 27 -26 36 -30 68 -25 20 4 44 16 54 27 22 27 43 27 28 0 -35 -65 -152
-64 -186 1 -25 50 -9 123 33 148 31 18 98 13 127 -10z m228 -21 l3 -43 58 -3
57 -3 0 46 c0 25 5 45 10 45 6 0 10 -42 10 -105 0 -63 -4 -105 -10 -105 -5 0
-10 23 -10 50 l0 51 -57 -3 -58 -3 -3 -47 c-6 -91 -22 -48 -22 57 0 59 4 105
9 105 6 0 11 -19 13 -42z m-2237 -106 c-3 -3 -11 0 -18 7 -9 10 -8 11 6 5 10
-3 15 -9 12 -12z m-596 -289 c-63 -104 -157 -204 -249 -264 l-24 -16 22 -28
c43 -54 18 -158 -50 -207 -31 -22 -44 -23 -200 -26 l-168 -3 0 50 c0 48 2 51
25 51 l25 0 0 170 0 170 -25 0 c-23 0 -25 3 -25 50 l0 50 156 0 c141 0 160 -2
194 -21 55 -31 83 -87 78 -155 -3 -30 0 -54 5 -54 14 0 191 181 222 228 34 52
45 56 14 5z m434 -25 c57 -29 79 -70 74 -142 -3 -52 -7 -63 -38 -90 l-34 -32
22 -32 c12 -18 24 -50 28 -72 6 -34 11 -40 31 -40 22 0 24 -4 24 -55 l0 -55
-79 0 -79 0 -11 63 c-6 35 -11 71 -11 80 0 34 -43 67 -90 69 l-45 3 -3 -57
c-3 -56 -2 -58 23 -58 23 0 25 -3 25 -50 l0 -50 -110 0 -110 0 0 50 c0 47 2
50 25 50 l25 0 0 169 0 170 -27 3 c-22 2 -29 9 -31 32 -2 15 -1 40 3 53 l6 25
172 -7 c140 -6 179 -11 210 -27z m755 -195 c62 -189 76 -223 93 -223 16 0 19
-7 19 -50 l0 -50 -105 0 -105 0 0 50 c0 49 1 50 29 50 l30 0 -13 38 -13 37
-80 3 -81 3 -11 -32 c-15 -45 -14 -49 14 -49 23 0 25 -3 25 -50 l0 -50 -105 0
-105 0 0 50 c0 46 2 50 23 50 21 0 29 17 92 213 38 116 73 218 78 225 7 9 31
12 76 10 l66 -3 73 -222z m612 167 c0 -49 -1 -50 -30 -50 l-30 0 0 -170 0
-170 30 0 c29 0 30 -1 30 -50 l0 -50 -115 0 -115 0 0 50 c0 47 2 50 25 50 l25
0 0 170 0 170 -25 0 c-23 0 -25 3 -25 50 l0 50 115 0 115 0 0 -50z m550 -116
c57 -91 108 -168 112 -170 4 -3 8 49 8 115 l0 121 -25 0 c-23 0 -25 3 -25 50
l0 50 106 0 105 0 -3 -47 c-3 -41 -6 -48 -25 -51 l-23 -3 0 -220 0 -219 -59 0
c-58 0 -60 1 -82 38 -13 20 -63 98 -111 172 l-88 135 0 -122 c0 -116 1 -123
20 -123 17 0 20 -7 20 -50 l0 -50 -100 0 -100 0 0 50 c0 43 3 50 20 50 19 0
20 7 20 170 0 163 -1 170 -20 170 -17 0 -20 7 -20 50 l0 50 83 0 82 0 105
-166z"/>
<path d="M3240 2754 l0 -35 48 3 c41 3 47 6 50 27 5 29 -12 41 -60 41 -37 0
-38 -1 -38 -36z"/>
<path d="M3240 2660 c0 -39 1 -40 36 -40 44 0 74 15 74 38 0 29 -21 42 -67 42
l-43 0 0 -40z"/>
<path d="M1310 2210 l0 -60 45 0 c72 0 105 47 69 98 -12 18 -25 22 -65 22
l-49 0 0 -60z"/>
<path d="M1310 2041 c0 -5 8 -12 18 -14 16 -4 16 -5 0 -6 -14 -1 -18 -10 -18
-46 l0 -45 48 0 c60 0 85 22 80 72 -3 32 -4 33 -48 31 -33 -2 -40 0 -25 7 16
7 13 9 -17 9 -21 1 -38 -3 -38 -8z"/>
<path d="M2022 2208 c3 -71 8 -75 84 -63 53 8 74 27 74 65 0 41 -32 60 -103
60 l-58 0 3 -62z"/>
<path d="M2837 2254 c-5 -9 -47 -142 -47 -150 0 -2 23 -4 50 -4 28 0 50 3 50
8 -1 21 -48 153 -53 146z"/>
</g>
</svg>
